{
	"asset":{
		"generator":"Khronos glTF Blender I/O v4.0.44",
		"version":"2.0"
	},
	"extensionsUsed":[
		"KHR_materials_specular",
		"KHR_materials_ior"
	],
	"scene":0,
	"scenes":[
		{
			"name":"Scene",
			"nodes":[
				0
			]
		}
	],
	"nodes":[
		{
			"mesh":0,
			"name":"Escenario"
		}
	],
	"materials":[
		{
			"doubleSided":true,
			"extensions":{
				"KHR_materials_specular":{
					"specularFactor":0
				},
				"KHR_materials_ior":{
					"ior":4.049999713897705
				}
			},
			"name":"Material #2131682211.002",
			"pbrMetallicRoughness":{
				"baseColorTexture":{
					"index":0
				},
				"metallicFactor":0.7963640093803406
			}
		},
		{
			"doubleSided":true,
			"extensions":{
				"KHR_materials_specular":{
					"specularFactor":0
				},
				"KHR_materials_ior":{
					"ior":1.4500000476837158
				}
			},
			"name":"Material #2131682212.001",
			"pbrMetallicRoughness":{
				"baseColorTexture":{
					"index":1
				},
				"metallicFactor":0,
				"roughnessFactor":0.5527864098548889
			}
		},
		{
			"doubleSided":true,
			"extensions":{
				"KHR_materials_specular":{
					"specularFactor":0
				},
				"KHR_materials_ior":{
					"ior":1.4500000476837158
				}
			},
			"name":"Material #2131682213.002",
			"pbrMetallicRoughness":{
				"baseColorTexture":{
					"index":2
				},
				"metallicFactor":0,
				"roughnessFactor":0.5527864098548889
			}
		},
		{
			"doubleSided":true,
			"extensions":{
				"KHR_materials_specular":{
					"specularFactor":0
				},
				"KHR_materials_ior":{
					"ior":1.4500000476837158
				}
			},
			"name":"Material #2131682214.002",
			"pbrMetallicRoughness":{
				"baseColorTexture":{
					"index":3
				},
				"metallicFactor":0,
				"roughnessFactor":0.4073318541049957
			}
		},
		{
			"doubleSided":true,
			"extensions":{
				"KHR_materials_specular":{
					"specularFactor":0
				},
				"KHR_materials_ior":{
					"ior":1.4500000476837158
				}
			},
			"name":"Material #2131682215.002",
			"pbrMetallicRoughness":{
				"baseColorTexture":{
					"index":4
				},
				"metallicFactor":0,
				"roughnessFactor":0.5527864098548889
			}
		}
	],
	"meshes":[
		{
			"name":"Mesh.008",
			"primitives":[
				{
					"attributes":{
						"POSITION":0,
						"NORMAL":1,
						"TEXCOORD_0":2
					},
					"indices":3,
					"material":0
				},
				{
					"attributes":{
						"POSITION":4,
						"NORMAL":5,
						"TEXCOORD_0":6
					},
					"indices":7,
					"material":1
				},
				{
					"attributes":{
						"POSITION":8,
						"NORMAL":9,
						"TEXCOORD_0":10
					},
					"indices":11,
					"material":2
				},
				{
					"attributes":{
						"POSITION":12,
						"NORMAL":13,
						"TEXCOORD_0":14
					},
					"indices":15,
					"material":3
				},
				{
					"attributes":{
						"POSITION":16,
						"NORMAL":17,
						"TEXCOORD_0":18
					},
					"indices":19,
					"material":4
				}
			]
		}
	],
	"textures":[
		{
			"sampler":0,
			"source":0
		},
		{
			"sampler":0,
			"source":1
		},
		{
			"sampler":0,
			"source":1
		},
		{
			"sampler":0,
			"source":2
		},
		{
			"sampler":1,
			"source":2
		}
	],
	"images":[
		{
			"mimeType":"image/jpeg",
			"name":"metal_plate_02_diff_4k",
			"uri":"metal_plate_02_diff_4k.jpg"
		},
		{
			"mimeType":"image/jpeg",
			"name":"brick_wall_02_diff_4k",
			"uri":"brick_wall_02_diff_4k.jpg"
		},
		{
			"mimeType":"image/png",
			"name":"rock_tile_floor_disp_4k",
			"uri":"rock_tile_floor_disp_4k.png"
		}
	],
	"accessors":[
		{
			"bufferView":0,
			"componentType":5126,
			"count":5084,
			"max":[
				77.20752716064453,
				62.2567138671875,
				91.3285140991211
			],
			"min":[
				-77.20624542236328,
				-1.1444091796875e-05,
				-77.20624542236328
			],
			"type":"VEC3"
		},
		{
			"bufferView":1,
			"componentType":5126,
			"count":5084,
			"type":"VEC3"
		},
		{
			"bufferView":2,
			"componentType":5126,
			"count":5084,
			"type":"VEC2"
		},
		{
			"bufferView":3,
			"componentType":5123,
			"count":8505,
			"type":"SCALAR"
		},
		{
			"bufferView":4,
			"componentType":5126,
			"count":214,
			"max":[
				76.3336410522461,
				56.295494079589844,
				90.31809997558594
			],
			"min":[
				-76.33362579345703,
				-1.1444091796875e-05,
				-76.3336181640625
			],
			"type":"VEC3"
		},
		{
			"bufferView":5,
			"componentType":5126,
			"count":214,
			"type":"VEC3"
		},
		{
			"bufferView":6,
			"componentType":5126,
			"count":214,
			"type":"VEC2"
		},
		{
			"bufferView":7,
			"componentType":5123,
			"count":435,
			"type":"SCALAR"
		},
		{
			"bufferView":8,
			"componentType":5126,
			"count":328,
			"max":[
				73.37178802490234,
				61.74946975708008,
				87.48628997802734
			],
			"min":[
				-73.37178039550781,
				13.984315872192383,
				-73.37177276611328
			],
			"type":"VEC3"
		},
		{
			"bufferView":9,
			"componentType":5126,
			"count":328,
			"type":"VEC3"
		},
		{
			"bufferView":10,
			"componentType":5126,
			"count":328,
			"type":"VEC2"
		},
		{
			"bufferView":11,
			"componentType":5123,
			"count":516,
			"type":"SCALAR"
		},
		{
			"bufferView":12,
			"componentType":5126,
			"count":112,
			"max":[
				17.32120132446289,
				61.74946975708008,
				17.321212768554688
			],
			"min":[
				-7.2106170654296875,
				47.895198822021484,
				-7.210609436035156
			],
			"type":"VEC3"
		},
		{
			"bufferView":13,
			"componentType":5126,
			"count":112,
			"type":"VEC3"
		},
		{
			"bufferView":14,
			"componentType":5126,
			"count":112,
			"type":"VEC2"
		},
		{
			"bufferView":15,
			"componentType":5123,
			"count":240,
			"type":"SCALAR"
		},
		{
			"bufferView":16,
			"componentType":5126,
			"count":56,
			"max":[
				16.667800903320312,
				59.54538345336914,
				16.66781234741211
			],
			"min":[
				-6.557212829589844,
				51.3828239440918,
				-6.5572052001953125
			],
			"type":"VEC3"
		},
		{
			"bufferView":17,
			"componentType":5126,
			"count":56,
			"type":"VEC3"
		},
		{
			"bufferView":18,
			"componentType":5126,
			"count":56,
			"type":"VEC2"
		},
		{
			"bufferView":19,
			"componentType":5123,
			"count":120,
			"type":"SCALAR"
		}
	],
	"bufferViews":[
		{
			"buffer":0,
			"byteLength":61008,
			"byteOffset":0,
			"target":34962
		},
		{
			"buffer":0,
			"byteLength":61008,
			"byteOffset":61008,
			"target":34962
		},
		{
			"buffer":0,
			"byteLength":40672,
			"byteOffset":122016,
			"target":34962
		},
		{
			"buffer":0,
			"byteLength":17010,
			"byteOffset":162688,
			"target":34963
		},
		{
			"buffer":0,
			"byteLength":2568,
			"byteOffset":179700,
			"target":34962
		},
		{
			"buffer":0,
			"byteLength":2568,
			"byteOffset":182268,
			"target":34962
		},
		{
			"buffer":0,
			"byteLength":1712,
			"byteOffset":184836,
			"target":34962
		},
		{
			"buffer":0,
			"byteLength":870,
			"byteOffset":186548,
			"target":34963
		},
		{
			"buffer":0,
			"byteLength":3936,
			"byteOffset":187420,
			"target":34962
		},
		{
			"buffer":0,
			"byteLength":3936,
			"byteOffset":191356,
			"target":34962
		},
		{
			"buffer":0,
			"byteLength":2624,
			"byteOffset":195292,
			"target":34962
		},
		{
			"buffer":0,
			"byteLength":1032,
			"byteOffset":197916,
			"target":34963
		},
		{
			"buffer":0,
			"byteLength":1344,
			"byteOffset":198948,
			"target":34962
		},
		{
			"buffer":0,
			"byteLength":1344,
			"byteOffset":200292,
			"target":34962
		},
		{
			"buffer":0,
			"byteLength":896,
			"byteOffset":201636,
			"target":34962
		},
		{
			"buffer":0,
			"byteLength":480,
			"byteOffset":202532,
			"target":34963
		},
		{
			"buffer":0,
			"byteLength":672,
			"byteOffset":203012,
			"target":34962
		},
		{
			"buffer":0,
			"byteLength":672,
			"byteOffset":203684,
			"target":34962
		},
		{
			"buffer":0,
			"byteLength":448,
			"byteOffset":204356,
			"target":34962
		},
		{
			"buffer":0,
			"byteLength":240,
			"byteOffset":204804,
			"target":34963
		}
	],
	"samplers":[
		{
			"magFilter":9729,
			"minFilter":9987
		},
		{
			"magFilter":9729,
			"minFilter":9987,
			"wrapS":33648,
			"wrapT":33648
		}
	],
	"buffers":[
		{
			"byteLength":205044,
			"uri":"untitled.bin"
		}
	]
}
